<?xml version="1.0" standalone="no"?>
<!DOCTYPE svg PUBLIC "-//W3C//DTD SVG 20010904//EN"
 "http://www.w3.org/TR/2001/REC-SVG-20010904/DTD/svg10.dtd">
<svg version="1.0" xmlns="http://www.w3.org/2000/svg"
 width="1920.000000pt" height="1080.000000pt" viewBox="0 0 1920.000000 1080.000000"
 preserveAspectRatio="xMidYMid meet">

<g transform="translate(0.000000,1080.000000) scale(0.100000,-0.100000)"
fill="#000000" stroke="none">
<path d="M6785 7596 c-77 -39 -153 -79 -170 -88 -16 -8 -50 -25 -75 -37 -25
-12 -65 -33 -90 -45 -25 -13 -65 -33 -90 -45 -25 -12 -52 -26 -60 -30 -8 -5
-49 -25 -90 -46 -41 -20 -82 -40 -90 -44 -8 -5 -50 -26 -92 -47 l-78 -39 0
-332 0 -333 23 0 c13 0 47 11 75 25 63 30 68 31 112 3 19 -12 53 -31 75 -43
22 -11 49 -26 60 -32 11 -6 27 -14 35 -17 8 -4 42 -22 75 -40 33 -19 83 -46
110 -60 28 -15 64 -35 80 -46 17 -10 49 -28 72 -40 23 -11 46 -27 52 -34 8
-10 11 -236 11 -784 0 -610 2 -772 12 -779 7 -4 55 -8 106 -8 85 -1 93 1 98
20 10 41 -1 2988 -11 2991 -5 1 -73 -31 -150 -70z m20 -367 c4 -135 -2 -179
-24 -186 -9 -3 -38 -16 -64 -30 -75 -39 -77 -35 -77 124 0 76 4 143 8 149 12
19 136 74 145 65 5 -5 10 -60 12 -122z m-627 -308 l3 -142 -35 -35 c-20 -20
-40 -33 -46 -29 -6 4 -10 60 -10 143 l0 137 33 37 c17 20 37 35 42 34 6 -2 11
-61 13 -145z m630 -204 c0 -139 -6 -163 -45 -177 -16 -6 -42 -18 -59 -27 -60
-31 -65 -20 -62 138 l3 141 50 29 c80 46 89 49 102 32 7 -9 11 -59 11 -136z"/>
<path d="M7140 6160 c0 -987 3 -1490 10 -1490 6 0 13 0 18 0 4 0 9 44 12 97
l5 98 29 -2 c49 -4 61 -25 63 -111 1 -42 2 -80 2 -83 1 -3 103 -9 229 -13 125
-4 256 -11 290 -16 35 -5 70 -6 78 -3 12 4 14 103 14 657 0 358 0 923 1 1256
l1 605 -30 30 c-16 17 -46 39 -68 50 -79 40 -280 165 -310 192 -41 37 -178
133 -214 150 -8 3 -29 17 -45 29 -17 12 -42 27 -58 33 l-27 11 0 -1490z m132
1146 c11 -15 10 -268 -1 -284 -7 -11 -16 -10 -50 7 l-41 21 0 138 c0 156 5
170 54 145 17 -9 34 -21 38 -27z m458 -231 c22 -14 46 -25 53 -25 32 0 37 -24
37 -162 0 -155 -6 -167 -62 -135 -17 9 -35 17 -41 17 -6 0 -21 10 -34 22 -22
21 -23 28 -23 165 0 161 0 162 70 118z m-499 -235 c5 0 18 -9 29 -20 18 -18
20 -33 20 -148 0 -80 -4 -132 -11 -139 -15 -15 -66 3 -79 27 -11 21 -14 273
-3 284 4 3 13 4 21 1 7 -3 18 -5 23 -5z m502 -260 c20 -11 44 -20 52 -20 28 0
36 -39 34 -167 -1 -130 -4 -153 -20 -153 -5 0 -39 14 -74 32 l-65 31 0 142 c0
78 3 145 7 148 11 11 26 8 66 -13z m-493 -237 c14 -9 28 -21 32 -27 8 -12 11
-258 3 -279 -8 -19 -42 -11 -72 16 -22 19 -23 28 -23 158 0 132 2 144 30 148
3 1 17 -7 30 -16z m473 -248 c20 -8 38 -19 42 -25 3 -5 17 -10 29 -10 20 0 24
-6 30 -46 9 -69 7 -237 -3 -253 -8 -12 -16 -12 -58 4 -98 36 -93 26 -93 195 0
83 4 150 9 150 5 0 25 -7 44 -15z m-475 -246 c26 -9 32 -17 37 -54 8 -49 3
-250 -6 -259 -10 -10 -69 15 -79 34 -11 20 -14 248 -4 274 7 19 11 19 52 5z
m468 -248 c5 -4 30 -16 56 -26 44 -16 48 -20 53 -59 7 -55 2 -253 -7 -262 -9
-8 -80 21 -120 50 l-28 20 0 143 c0 131 2 143 18 143 10 0 22 -4 28 -9z m-467
-248 c16 -10 32 -27 35 -38 11 -39 6 -261 -5 -272 -15 -15 -66 3 -79 27 -11
21 -14 283 -3 293 10 10 19 9 52 -10z m504 -264 c37 -17 68 -38 70 -47 8 -33
7 -267 -1 -280 -7 -10 -14 -10 -38 2 -16 7 -48 22 -71 32 l-42 19 -1 146 c0
125 3 159 16 159 1 0 31 -14 67 -31z"/>
<path d="M8415 6811 c-16 -9 -44 -25 -60 -36 -17 -11 -39 -25 -50 -32 -11 -6
-74 -44 -140 -84 -66 -40 -132 -79 -147 -87 -31 -15 -52 -47 -43 -62 12 -20 9
-21 268 137 28 18 70 42 92 54 22 12 51 30 64 41 14 10 28 15 33 10 4 -4 9
-496 11 -1093 l2 -1084 65 -11 c49 -9 67 -9 72 -1 4 7 8 474 8 1039 0 611 4
1029 9 1032 12 8 63 -12 73 -27 4 -7 8 -474 8 -1039 0 -1011 0 -1027 20 -1038
32 -17 180 -34 192 -22 11 11 12 2069 1 2097 -3 8 -11 15 -18 15 -7 0 -18 6
-24 14 -7 8 -23 17 -37 20 -14 4 -43 18 -65 32 -37 23 -109 63 -192 106 -20
11 -40 24 -43 29 -8 14 -66 8 -99 -10z"/>
<path d="M6115 6471 c-9 -9 -41 -27 -160 -89 -95 -49 -220 -125 -232 -140 -10
-12 -13 -200 -13 -863 0 -765 2 -847 16 -853 9 -3 20 -3 25 0 6 3 31 9 57 13
l47 6 3 841 2 840 34 16 c25 12 36 14 45 5 8 -8 11 -241 11 -844 l0 -834 68 3
67 3 3 913 2 912 28 -6 c15 -4 47 -18 72 -32 25 -13 99 -53 165 -87 66 -35
151 -79 189 -99 75 -39 91 -43 99 -22 6 15 -19 56 -34 56 -5 0 -87 47 -182
104 -194 116 -282 166 -294 166 -5 0 -13 -4 -18 -9z"/>
<path d="M7979 6376 c-2 -2 -2 -395 1 -872 l5 -868 35 -8 c62 -15 315 -36 325
-28 7 6 9 277 7 788 l-2 780 -176 106 c-169 102 -186 111 -195 102z"/>
<path d="M6445 5939 c-82 -43 -176 -91 -208 -106 l-57 -27 2 -606 c2 -457 6
-604 15 -603 32 6 230 26 321 31 75 5 105 11 112 22 6 9 10 284 10 693 l0 677
-22 -1 c-13 -1 -90 -37 -173 -80z"/>
<path d="M10387 5820 c-97 -17 -157 -86 -157 -179 0 -106 43 -143 215 -186
108 -27 121 -33 133 -58 28 -57 -18 -97 -110 -97 -63 0 -114 27 -124 65 -6 23
-10 25 -65 25 -54 0 -59 -2 -59 -22 0 -38 40 -105 78 -131 121 -84 339 -49
397 64 8 15 15 54 15 85 0 46 -5 64 -26 91 -33 44 -61 57 -185 88 -126 32
-149 45 -149 85 0 91 187 89 216 -2 4 -15 16 -18 65 -18 57 0 59 1 59 25 0 54
-55 122 -120 148 -48 20 -125 27 -183 17z"/>
<path d="M9180 5771 c0 -69 3 -71 95 -71 l82 0 7 -52 c3 -29 6 -140 6 -245 l0
-193 63 0 62 0 0 242 0 243 94 3 93 3 -6 31 c-3 17 -6 41 -6 54 l0 24 -245 0
-245 0 0 -39z"/>
<path d="M9825 5798 c-59 -163 -205 -575 -205 -581 0 -4 30 -7 67 -5 l66 3 20
58 19 57 108 0 107 0 20 -57 19 -58 72 -3 71 -3 -15 43 c-9 24 -46 131 -84
238 -38 107 -79 223 -92 257 l-23 63 -73 0 c-49 0 -74 -4 -77 -12z m113 -246
c18 -54 32 -101 32 -105 0 -4 -32 -7 -71 -7 -81 0 -77 -16 -31 127 15 46 29
83 32 83 3 0 20 -44 38 -98z"/>
<path d="M10800 5510 l0 -300 65 0 65 0 0 96 c0 81 3 100 21 125 26 36 39 36
64 0 11 -16 51 -72 89 -125 l69 -96 83 0 83 0 -124 169 c-68 93 -126 173 -127
179 -2 6 51 65 116 131 l119 121 -81 0 -82 0 -114 -117 -115 -118 -1 118 0
117 -65 0 -65 0 0 -300z"/>
<path d="M11400 5510 l0 -300 216 0 216 0 -6 38 c-3 20 -5 45 -6 55 0 15 -14
17 -145 17 l-145 0 0 245 0 245 -65 0 -65 0 0 -300z"/>
<path d="M11722 5802 c2 -4 47 -87 101 -184 l97 -176 0 -116 0 -116 68 0 67 0
-3 109 -3 109 69 129 c38 70 83 156 100 191 l32 62 -71 0 -70 0 -56 -120 c-31
-66 -59 -120 -62 -120 -4 0 -33 54 -66 120 l-59 120 -74 0 c-41 0 -72 -3 -70
-8z"/>
<path d="M6885 4539 c-181 -4 -338 -12 -360 -18 -22 -6 -76 -11 -120 -11 -44
0 -111 -6 -150 -14 -38 -8 -113 -20 -165 -26 -52 -7 -117 -15 -145 -20 -27 -4
-88 -13 -135 -20 -47 -7 -103 -18 -125 -26 -22 -7 -66 -16 -98 -20 -32 -4 -60
-11 -63 -15 -3 -5 -18 -9 -34 -9 -16 0 -41 -5 -57 -11 -15 -6 -46 -14 -68 -19
-38 -8 -54 -12 -135 -40 -19 -7 -51 -16 -70 -21 -31 -7 -157 -51 -215 -74 -11
-5 -58 -23 -105 -42 -133 -53 -219 -97 -220 -112 0 -14 18 -12 75 7 17 6 59
18 95 27 36 10 83 23 105 31 23 8 55 14 72 14 18 0 47 6 65 14 18 8 78 22 133
31 55 10 125 23 155 31 30 7 85 16 123 19 37 4 70 11 73 16 3 5 24 9 47 9 23
0 74 7 112 15 39 8 102 15 140 15 39 0 86 5 105 11 40 13 270 34 540 49 102 5
212 14 245 20 78 13 945 12 1045 -1 41 -5 154 -14 250 -19 252 -12 459 -29
505 -41 22 -6 92 -14 155 -19 63 -5 131 -13 150 -19 19 -6 56 -11 82 -11 26 0
49 -4 52 -9 3 -5 36 -12 73 -15 38 -4 97 -13 133 -21 36 -8 103 -22 150 -30
47 -9 101 -21 120 -27 19 -7 55 -15 80 -19 25 -4 87 -19 139 -33 51 -14 104
-26 116 -26 13 0 25 -4 27 -8 2 -5 15 -12 31 -16 34 -8 39 19 5 30 -13 4 -39
17 -58 29 -19 11 -62 32 -95 44 -33 13 -82 32 -110 43 -27 11 -77 28 -110 39
-33 11 -73 26 -90 33 -16 8 -50 19 -75 25 -25 7 -58 16 -75 21 -126 37 -253
69 -330 82 -33 5 -75 16 -93 24 -18 8 -49 14 -70 14 -20 0 -55 5 -77 11 -40
10 -84 16 -295 43 -63 9 -126 18 -140 22 -25 6 -128 15 -375 33 -178 14 -556
17 -940 10z"/>
</g>
</svg>
